<svg width="29" height="28" viewBox="0 0 29 28" fill="none" xmlns="http://www.w3.org/2000/svg">
<path d="M26.9286 19.8311H2.07143C0.92741 19.8311 0 20.7454 0 21.8733V25.9578C0 27.0857 0.92741 28.0001 2.07143 28.0001H26.9286C28.0726 28.0001 29 27.0857 29 25.9578V21.8733C29 20.7454 28.0726 19.8311 26.9286 19.8311Z" fill="#4580FF"/>
<path d="M22.4128 15.6443L16.9339 1.31786C16.6232 0.490744 15.8257 -0.00960924 14.9764 0.000602057H14.0339C13.1846 -0.0198205 12.3767 0.480533 12.0557 1.31786L6.57675 15.6443C6.17282 16.7063 6.72175 17.8806 7.78853 18.2788C8.85532 18.6771 10.0567 18.1461 10.4607 17.0841L11.3617 14.7253H17.6382L18.5392 17.0841C18.9432 18.1461 20.1342 18.6771 21.201 18.2788C22.2782 17.8806 22.8167 16.7063 22.4128 15.6443ZM12.9257 10.6408L14.5 6.51541L16.0742 10.6408H12.9257Z" fill="black"/>
</svg>
